<?xml version="1.0" ?><!DOCTYPE svg  PUBLIC '-//W3C//DTD SVG 1.1//EN'  'http://www.w3.org/Graphics/SVG/1.1/DTD/svg11.dtd'><svg height="512pt" version="1.1" viewBox="0 0 512 512" width="512pt" xmlns="http://www.w3.org/2000/svg"><g id="#ff6a22ff"><path d=" M 26.65 26.64 C 35.87 17.36 48.88 11.96 61.97 11.99 C 180.65 12.01 299.34 11.99 418.02 12.01 C 421.92 11.96 425.76 12.81 429.48 13.96 L 430.08 14.42 C 432.64 16.47 435.61 17.90 438.45 19.51 C 452.94 28.35 462.10 45.02 462.01 61.97 C 461.98 174.98 462.01 287.99 462.00 401.00 C 461.96 408.82 462.54 416.81 460.42 424.44 C 456.53 440.21 444.30 453.59 429.01 459.02 C 421.36 461.93 413.09 462.24 405.00 462.01 C 294.00 461.98 183.00 462.01 72.00 462.00 C 63.96 462.03 55.73 462.46 47.97 459.98 C 40.90 458.16 34.83 453.99 28.77 450.10 C 19.08 440.22 12.03 427.17 12.02 413.06 C 11.97 296.03 12.02 179.00 11.99 61.97 C 11.94 48.87 17.36 35.87 26.65 26.64 M 249.47 173.51 C 247.63 174.24 246.23 175.98 246.42 178.03 C 246.38 224.02 246.43 270.01 246.40 316.00 C 246.43 318.85 246.16 321.72 246.62 324.55 C 247.32 327.28 250.36 328.51 252.97 328.31 C 294.63 328.30 336.30 328.32 377.97 328.29 C 394.49 328.42 410.61 318.76 418.18 304.07 C 424.17 292.91 425.01 279.21 420.68 267.33 C 415.85 253.65 404.01 242.72 390.02 238.91 C 380.22 236.12 369.57 236.88 360.19 240.78 C 358.27 218.13 346.14 196.64 327.82 183.21 C 305.78 166.61 274.88 162.77 249.47 173.51 M 235.42 178.43 C 233.10 179.15 231.95 181.63 232.07 183.93 C 231.42 217.63 230.71 251.33 230.08 285.03 C 230.61 296.67 231.24 308.32 231.83 319.96 C 232.08 322.57 231.83 325.99 234.53 327.47 C 237.70 329.56 242.41 326.88 242.13 323.04 C 242.80 310.03 244.02 297.04 244.35 284.01 C 243.64 250.66 242.90 217.32 242.16 183.98 C 242.61 180.30 238.97 177.11 235.42 178.43 M 219.42 187.45 C 217.34 188.43 216.75 190.85 216.79 192.96 C 216.30 220.64 215.72 248.31 215.22 275.99 C 214.59 290.03 216.16 304.04 216.48 318.08 C 216.61 320.59 216.53 323.18 217.30 325.61 C 218.34 328.67 222.92 329.36 224.96 326.93 C 226.43 325.31 226.31 322.98 226.49 320.95 C 226.87 308.62 227.95 296.33 228.17 284.01 C 227.59 255.35 226.97 226.69 226.39 198.03 C 226.30 195.40 226.48 192.73 225.92 190.15 C 225.15 187.49 221.85 186.22 219.42 187.45 M 173.29 198.18 C 171.06 199.20 171.24 201.87 171.11 203.92 C 170.44 230.61 169.61 257.30 168.93 284.00 C 169.32 296.70 170.48 309.37 171.01 322.07 C 171.13 324.34 171.23 327.67 174.08 328.19 C 176.68 328.96 178.93 326.52 178.77 324.02 C 179.76 311.35 180.41 298.65 181.28 285.98 C 180.64 259.64 179.62 233.31 178.94 206.98 C 178.80 204.56 179.00 202.06 178.27 199.72 C 177.34 197.96 175.04 197.56 173.29 198.18 M 188.33 200.18 C 186.20 201.27 186.26 203.87 186.18 205.92 C 185.62 232.28 184.76 258.64 184.21 285.00 C 184.67 297.37 185.48 309.73 186.16 322.09 C 186.39 323.84 186.19 325.99 187.67 327.27 C 189.91 329.43 194.28 327.78 194.38 324.60 C 195.27 311.75 196.18 298.88 196.77 286.01 C 196.27 260.66 195.27 235.33 194.65 209.98 C 194.57 207.55 194.72 205.09 194.27 202.69 C 193.73 200.17 190.52 198.89 188.33 200.18 M 158.24 201.09 C 156.08 202.22 156.24 204.84 156.12 206.92 C 155.41 233.28 154.43 259.63 153.77 285.98 C 154.69 298.94 155.19 311.94 156.31 324.89 C 156.05 328.64 162.25 329.44 162.86 325.79 C 163.74 321.59 163.59 317.26 163.97 313.01 C 164.50 302.99 165.77 293.01 165.88 282.98 C 165.04 261.97 164.58 240.93 163.58 219.92 C 163.25 213.76 163.70 207.53 162.49 201.44 C 161.07 201.27 159.66 201.05 158.24 201.09 M 203.30 203.08 C 201.79 204.27 201.41 206.22 201.41 208.04 C 200.92 233.69 200.10 259.34 199.60 285.00 C 199.96 297.03 200.88 309.05 201.28 321.08 C 201.46 323.34 201.22 326.22 203.42 327.62 C 206.13 329.54 210.40 327.38 210.23 324.00 C 210.99 307.02 213.05 290.05 212.14 273.03 C 211.56 251.09 210.84 229.16 210.38 207.22 C 210.67 203.56 206.36 201.16 203.30 203.08 M 142.43 208.31 C 141.07 208.92 141.30 210.71 141.10 211.92 C 140.29 232.95 139.57 253.99 138.83 275.03 C 137.80 291.41 140.35 307.71 141.02 324.05 C 140.84 326.28 142.34 329.15 144.98 328.36 C 147.92 327.87 147.42 324.29 147.74 322.10 C 148.32 309.39 150.10 296.75 150.37 284.02 C 149.34 259.75 148.47 235.48 147.46 211.21 C 147.68 208.63 144.55 206.66 142.43 208.31 M 128.19 222.01 C 126.21 223.32 126.54 225.87 126.40 227.92 C 125.83 246.96 124.48 265.97 123.86 285.00 C 124.21 297.06 125.74 309.05 126.26 321.10 C 126.47 323.01 126.25 325.08 127.07 326.88 C 128.21 329.03 132.08 328.46 132.12 325.85 C 133.34 314.25 134.02 302.60 135.12 290.99 C 135.55 287.01 135.45 283.02 135.18 279.04 C 134.32 261.10 133.10 243.17 132.41 225.22 C 132.56 222.97 130.38 221.13 128.19 222.01 M 99.18 243.21 C 97.22 243.87 97.50 246.28 97.25 247.91 C 96.51 259.31 95.51 270.69 94.59 282.07 C 94.11 287.80 95.01 293.52 95.41 299.23 C 96.18 307.75 96.76 316.29 97.49 324.81 C 97.06 327.23 101.26 328.23 101.69 325.73 C 103.01 315.95 103.56 306.06 104.61 296.24 C 105.02 291.53 105.84 286.80 105.28 282.06 C 104.12 270.05 103.09 258.03 101.97 246.02 C 102.06 244.46 100.91 242.72 99.18 243.21 M 83.30 244.90 C 82.47 255.31 81.49 265.71 80.62 276.12 C 80.26 280.40 79.61 284.69 79.98 289.00 C 80.91 300.03 82.08 311.03 83.00 322.05 C 83.27 323.40 83.04 325.76 85.00 325.74 C 87.00 325.79 86.83 323.37 87.10 322.00 C 88.10 310.97 89.44 299.98 90.53 288.96 C 91.07 284.13 90.13 279.32 89.67 274.53 C 88.55 264.66 87.91 254.75 86.70 244.90 C 85.57 244.88 84.43 244.88 83.30 244.90 M 113.29 246.07 C 111.84 246.71 112.20 248.70 111.85 249.98 C 110.92 261.97 109.82 273.95 109.10 285.95 C 109.61 298.33 111.06 310.66 111.84 323.02 C 111.98 324.48 112.05 326.01 112.74 327.35 C 114.22 328.33 116.77 327.91 116.87 325.81 C 118.04 318.59 118.01 311.22 118.92 303.96 C 119.56 295.66 121.06 287.32 119.88 279.00 C 118.72 268.73 118.18 258.40 116.98 248.15 C 117.11 246.20 114.85 245.28 113.29 246.07 M 69.31 250.79 C 67.91 259.85 67.29 269.02 66.13 278.11 C 64.39 288.76 67.17 299.40 67.94 310.02 C 68.58 313.32 67.88 317.20 70.00 320.04 C 70.39 319.92 71.17 319.68 71.56 319.55 C 73.64 308.82 74.48 297.85 75.92 287.01 C 75.69 277.24 73.48 267.62 72.75 257.87 C 72.27 255.28 72.89 251.12 69.31 250.79 M 54.86 268.04 C 54.35 275.85 51.72 283.63 53.32 291.48 C 54.13 296.54 54.39 301.69 55.42 306.72 C 56.05 306.89 57.32 307.25 57.95 307.42 C 58.99 301.53 59.82 295.60 60.86 289.70 C 61.96 284.45 60.19 279.23 59.61 274.03 C 59.00 270.73 59.07 267.23 57.75 264.11 C 55.19 262.73 55.15 266.41 54.86 268.04 Z" fill="#ff6a22" opacity="1.00"/></g><g id="#e54c02ff"><path d=" M 430.08 14.42 C 438.31 16.52 445.02 22.21 450.88 28.12 C 462.30 39.36 473.73 50.59 485.14 61.84 C 492.20 68.31 497.74 77.15 498.01 86.94 C 497.98 206.96 498.01 326.98 498.00 447.00 C 497.95 453.55 496.77 460.09 494.40 466.20 C 486.92 486.33 466.56 500.91 445.01 500.98 C 325.99 501.03 206.98 500.98 87.96 501.01 C 76.71 501.30 65.95 495.69 58.39 487.59 C 50.06 478.84 42.53 469.36 35.33 459.67 C 33.06 456.54 30.59 453.53 28.77 450.10 C 34.83 453.99 40.90 458.16 47.97 459.98 C 55.73 462.46 63.96 462.03 72.00 462.00 C 183.00 462.01 294.00 461.98 405.00 462.01 C 413.09 462.24 421.36 461.93 429.01 459.02 C 444.30 453.59 456.53 440.21 460.42 424.44 C 462.54 416.81 461.96 408.82 462.00 401.00 C 462.01 287.99 461.98 174.98 462.01 61.97 C 462.10 45.02 452.94 28.35 438.45 19.51 C 435.61 17.90 432.64 16.47 430.08 14.42 Z" fill="#e54c02" opacity="1.00"/></g><g id="#f1f2f2ff"><path d=" M 249.47 173.51 C 274.88 162.77 305.78 166.61 327.82 183.21 C 346.14 196.64 358.27 218.13 360.19 240.78 C 369.57 236.88 380.22 236.12 390.02 238.91 C 404.01 242.72 415.85 253.65 420.68 267.33 C 425.01 279.21 424.17 292.91 418.18 304.07 C 410.61 318.76 394.49 328.42 377.97 328.29 C 336.30 328.32 294.63 328.30 252.97 328.31 C 250.36 328.51 247.32 327.28 246.62 324.55 C 246.16 321.72 246.43 318.85 246.40 316.00 C 246.43 270.01 246.38 224.02 246.42 178.03 C 246.23 175.98 247.63 174.24 249.47 173.51 Z" fill="#f1f2f2" opacity="1.00"/><path d=" M 235.42 178.43 C 238.97 177.11 242.61 180.30 242.16 183.98 C 242.90 217.32 243.64 250.66 244.35 284.01 C 244.02 297.04 242.80 310.03 242.13 323.04 C 242.41 326.88 237.70 329.56 234.53 327.47 C 231.83 325.99 232.08 322.57 231.83 319.96 C 231.24 308.32 230.61 296.67 230.08 285.03 C 230.71 251.33 231.42 217.63 232.07 183.93 C 231.95 181.63 233.10 179.15 235.42 178.43 Z" fill="#f1f2f2" opacity="1.00"/><path d=" M 219.42 187.45 C 221.85 186.22 225.15 187.49 225.92 190.15 C 226.48 192.73 226.30 195.40 226.39 198.03 C 226.97 226.69 227.59 255.35 228.17 284.01 C 227.95 296.33 226.87 308.62 226.49 320.95 C 226.31 322.98 226.43 325.31 224.96 326.93 C 222.92 329.36 218.34 328.67 217.30 325.61 C 216.53 323.18 216.61 320.59 216.48 318.08 C 216.16 304.04 214.59 290.03 215.22 275.99 C 215.72 248.31 216.30 220.64 216.79 192.96 C 216.75 190.85 217.34 188.43 219.42 187.45 Z" fill="#f1f2f2" opacity="1.00"/><path d=" M 173.29 198.18 C 175.04 197.56 177.34 197.96 178.27 199.72 C 179.00 202.06 178.80 204.56 178.94 206.98 C 179.62 233.31 180.64 259.64 181.28 285.98 C 180.41 298.65 179.76 311.35 178.77 324.02 C 178.93 326.52 176.68 328.96 174.08 328.19 C 171.23 327.67 171.13 324.34 171.01 322.07 C 170.48 309.37 169.32 296.70 168.93 284.00 C 169.61 257.30 170.44 230.61 171.11 203.92 C 171.24 201.87 171.06 199.20 173.29 198.18 Z" fill="#f1f2f2" opacity="1.00"/><path d=" M 188.33 200.18 C 190.52 198.89 193.73 200.17 194.27 202.69 C 194.72 205.09 194.57 207.55 194.65 209.98 C 195.27 235.33 196.27 260.66 196.77 286.01 C 196.18 298.88 195.27 311.75 194.38 324.60 C 194.28 327.78 189.91 329.43 187.67 327.27 C 186.19 325.99 186.39 323.84 186.16 322.09 C 185.48 309.73 184.67 297.37 184.21 285.00 C 184.76 258.64 185.62 232.28 186.18 205.92 C 186.26 203.87 186.20 201.27 188.33 200.18 Z" fill="#f1f2f2" opacity="1.00"/><path d=" M 158.24 201.09 C 159.66 201.05 161.07 201.27 162.49 201.44 C 163.70 207.53 163.25 213.76 163.58 219.92 C 164.58 240.93 165.04 261.97 165.88 282.98 C 165.77 293.01 164.50 302.99 163.97 313.01 C 163.59 317.26 163.74 321.59 162.86 325.79 C 162.25 329.44 156.05 328.64 156.31 324.89 C 155.19 311.94 154.69 298.94 153.77 285.98 C 154.43 259.63 155.41 233.28 156.12 206.92 C 156.24 204.84 156.08 202.22 158.24 201.09 Z" fill="#f1f2f2" opacity="1.00"/><path d=" M 203.30 203.08 C 206.36 201.16 210.67 203.56 210.38 207.22 C 210.84 229.16 211.56 251.09 212.14 273.03 C 213.05 290.05 210.99 307.02 210.23 324.00 C 210.40 327.38 206.13 329.54 203.42 327.62 C 201.22 326.22 201.46 323.34 201.28 321.08 C 200.88 309.05 199.96 297.03 199.60 285.00 C 200.10 259.34 200.92 233.69 201.41 208.04 C 201.41 206.22 201.79 204.27 203.30 203.08 Z" fill="#f1f2f2" opacity="1.00"/><path d=" M 142.43 208.31 C 144.55 206.66 147.68 208.63 147.46 211.21 C 148.47 235.48 149.34 259.75 150.37 284.02 C 150.10 296.75 148.32 309.39 147.74 322.10 C 147.42 324.29 147.92 327.87 144.98 328.36 C 142.34 329.15 140.84 326.28 141.02 324.05 C 140.35 307.71 137.80 291.41 138.83 275.03 C 139.57 253.99 140.29 232.95 141.10 211.92 C 141.30 210.71 141.07 208.92 142.43 208.31 Z" fill="#f1f2f2" opacity="1.00"/><path d=" M 128.19 222.01 C 130.38 221.13 132.56 222.97 132.41 225.22 C 133.10 243.17 134.32 261.10 135.18 279.04 C 135.45 283.02 135.55 287.01 135.12 290.99 C 134.02 302.60 133.34 314.25 132.12 325.85 C 132.08 328.46 128.21 329.03 127.07 326.88 C 126.25 325.08 126.47 323.01 126.26 321.10 C 125.74 309.05 124.21 297.06 123.86 285.00 C 124.48 265.97 125.83 246.96 126.40 227.92 C 126.54 225.87 126.21 223.32 128.19 222.01 Z" fill="#f1f2f2" opacity="1.00"/><path d=" M 99.18 243.21 C 100.91 242.72 102.06 244.46 101.97 246.02 C 103.09 258.03 104.12 270.05 105.28 282.06 C 105.84 286.80 105.02 291.53 104.61 296.24 C 103.56 306.06 103.01 315.95 101.69 325.73 C 101.26 328.23 97.06 327.23 97.49 324.81 C 96.76 316.29 96.18 307.75 95.41 299.23 C 95.01 293.52 94.11 287.80 94.59 282.07 C 95.51 270.69 96.51 259.31 97.25 247.91 C 97.50 246.28 97.22 243.87 99.18 243.21 Z" fill="#f1f2f2" opacity="1.00"/><path d=" M 83.30 244.90 C 84.43 244.88 85.57 244.88 86.70 244.90 C 87.91 254.75 88.55 264.66 89.67 274.53 C 90.13 279.32 91.07 284.13 90.53 288.96 C 89.44 299.98 88.10 310.97 87.10 322.00 C 86.83 323.37 87.00 325.79 85.00 325.74 C 83.04 325.76 83.27 323.40 83.00 322.05 C 82.08 311.03 80.91 300.03 79.98 289.00 C 79.61 284.69 80.26 280.40 80.62 276.12 C 81.49 265.71 82.47 255.31 83.30 244.90 Z" fill="#f1f2f2" opacity="1.00"/><path d=" M 113.29 246.07 C 114.85 245.28 117.11 246.20 116.98 248.15 C 118.18 258.40 118.72 268.73 119.88 279.00 C 121.06 287.32 119.56 295.66 118.92 303.96 C 118.01 311.22 118.04 318.59 116.87 325.81 C 116.77 327.91 114.22 328.33 112.74 327.35 C 112.05 326.01 111.98 324.48 111.84 323.02 C 111.06 310.66 109.61 298.33 109.10 285.95 C 109.82 273.95 110.92 261.97 111.85 249.98 C 112.20 248.70 111.84 246.71 113.29 246.07 Z" fill="#f1f2f2" opacity="1.00"/><path d=" M 69.31 250.79 C 72.89 251.12 72.27 255.28 72.75 257.87 C 73.48 267.62 75.69 277.24 75.92 287.01 C 74.48 297.85 73.64 308.82 71.56 319.55 C 71.17 319.68 70.39 319.92 70.00 320.04 C 67.88 317.20 68.58 313.32 67.94 310.02 C 67.17 299.40 64.39 288.76 66.13 278.11 C 67.29 269.02 67.91 259.85 69.31 250.79 Z" fill="#f1f2f2" opacity="1.00"/><path d=" M 54.86 268.04 C 55.15 266.41 55.19 262.73 57.75 264.11 C 59.07 267.23 59.00 270.73 59.61 274.03 C 60.19 279.23 61.96 284.45 60.86 289.70 C 59.82 295.60 58.99 301.53 57.95 307.42 C 57.32 307.25 56.05 306.89 55.42 306.72 C 54.39 301.69 54.13 296.54 53.32 291.48 C 51.72 283.63 54.35 275.85 54.86 268.04 Z" fill="#f1f2f2" opacity="1.00"/></g></svg>