<?xml version="1.0" ?><svg data-name="Layer 1" id="Layer_1" viewBox="0 0 128 128" xmlns="http://www.w3.org/2000/svg"><defs><style>.cls-1{fill:#e21a20;}.cls-2{fill:#fff;fill-rule:evenodd;}</style></defs><title/><circle class="cls-1" cx="64" cy="64" r="64"/><path class="cls-2" d="M98.62,53.92c-.49-6.75-1.72-13.72-10.35-14.23a426.5,426.5,0,0,0-48.55,0c-8.63.5-9.86,7.48-10.35,14.23a135,135,0,0,0,0,20.16c.49,6.75,1.72,13.72,10.35,14.23a426.5,426.5,0,0,0,48.55,0c8.63-.5,9.86-7.48,10.35-14.23A135,135,0,0,0,98.62,53.92ZM57,73V53L76,63Z"/></svg>