<svg xmlns="http://www.w3.org/2000/svg" viewBox="0 0 330 330"><defs><linearGradient id="L1" x1="137.97" y1="148.47" x2="130.27" y2="164.19" gradientUnits="userSpaceOnUse"><stop offset="0" stop-color="#44515d"/><stop offset="1" stop-color="#586871"/></linearGradient><linearGradient id="L2" x1="201.76" y1="25.09" x2="220.51" y2="30.43" gradientUnits="userSpaceOnUse"><stop offset="0" stop-color="#b78780"/><stop offset="1" stop-color="#9a5557"/></linearGradient></defs><circle fill="#f4fbfe" cx="165" cy="164.46" r="155"/><g><path fill="#fdfdfc" d="M106.5,191.96c.39,1.47.29,1.2,1,2.5,1.1,2.03,2.45,3.97,3.5,6,.68,1.31,1.41,2.65,2,4,2.19,5,2.68,8.56,3.5,10.5l-61.5.5c-2.83-6.53-6.68-7.32,2-9.5,2.13-.35,6.37-1.69,8.5-2.5,11.78,5.3,28.15,4.24,41,3.5.44.38,5.9,4.34,6.25,4.5,6.54,2.99-6.06-10.21-6.75-20-.05.62.49.47.5.5Z"/><path fill="#edac11" d="M106,178.96c-.18,3.27-.23,9.33,0,12.5.69,9.79,13.29,22.99,6.75,20-.35-.16-5.81-4.12-6.25-4.5-6-5.24-5.66-7.85-6-8.25-.31-.37-2.85-.07-2.5-3-4.02-3.69-5.79.43-10.75-1.25-3.26,3.61-5.63-.5-8,3.5-4.67-.62-4.25,1.4-4.5,1.5-.62.24-.88-.74-1.5-.5-2.28.88-5.27,3.55-7.75,4.5-2.13.81-6.37,2.15-8.5,2.5-1.53.25-3.36.18-4.75,1l-1.25-.75c-2.49-8.19-6.14-16.18-7-24.75,2.59.62,16.94-2.67,17-5.25.08-3.52-14.54,4.1-15,1.5l4.75-10.75c7.54,3.04,16.7-8.46,16.25-3.25-.07.81-10.51,7.02,2.75,11.25,14.53,4.64,25.17-7.99,33-7.5l5.25-6c.21,5.86-1.68,11.71-2,17.5Z"/><path fill="#ead57a" d="M285,173.46c-.63,6.55.79,13.02,1,19.5.17,5.24.18,10.76,0,16l-24.75,3c-11.19-3.27-23.46-3.11-34.25-7,1.44-5.48,7.05-16.83,7-23.75-.04-4.83-4.95-4.4,6-24.75.69-.63.77-1.56,1.75-1.5,10.22,5.36,18.26,8.89,26.5,17.5,4.54-9.18,12.27-5.86,16.75,1Z"/><path fill="#f8d27f" d="M106.5,206.96c-12.85.74-29.22,1.8-41-3.5,2.48-.95,5.47-3.62,7.75-4.5.62-.24.88.74,1.5.5.25-.1-.17-2.12,4.5-1.5,2.37-4,4.74.11,8-3.5,4.96,1.68,6.73-2.44,10.75,1.25-.35,2.93,2.19,2.63,2.5,3,.34.4,0,3.01,6,8.25Z"/><path fill="#fdfdfc" d="M286,208.96c-.06,1.91-.36,3.66-.5,5.5l-59.25.5c-.38-.27-.44-8.27-.25-9.25.08-.42.78.07,1-.75,10.79,3.89,23.06,3.73,34.25,7l24.75-3Z"/><path fill="#7598ab" d="M121,226.46c.55,1.37,1.42,2.64,2,4h-61c-2.48-5.01-4.78-9.87-7-15l61.5-.5c1.6,3.79,2.96,7.68,4.5,11.5Z"/><path fill="#87a7b9" d="M92.5,253.46c-3.91,2.49-6.87,7.45-7.5,12-3.17-4.02-6.11-8.28-9-12.5l16.5.5Z"/><path fill="#5f899d" d="M127.5,241.46l-60.5-1c-1.58-2.97-3.01-5.99-4.5-9l60.5-.5c1.83,4.25,4.27,4.66,4.5,10.5Z"/><path fill="#9dbacb" d="M123,230.46c.06.14-.06.36,0,.5l-60.5.5c-.17-.33-.33-.66-.5-1h61Z"/><path fill="#fdfdfc" d="M77.75,233.46c2.39-.37,48.58-1.34,36,4.5-3.79,1.76-37.23,1.53-40-1-2.21-2.02,2.4-3.25,4-3.5Z"/><path fill="#3b6e83" d="M127.5,242.96c-.08.78.27,3.13-.25,3.5-7.15.12-30,3.98-34.75,7l-16.5-.5c-1.52-2.21-5.38-7.11-6-8.5-.33-.74-1.6-1.57-.75-2l58.25.5Z"/><path fill="#c4dce4" d="M127.5,241.46c.02.49.05,1.02,0,1.5l-58.25-.5c-.85.43.42,1.26.75,2-1.4.28-2.08-2.27-3-4l60.5,1Z"/><path fill="#fdfdfc" d="M95.25,245.96c22.6.02-4.24,6.03-12,3.5-7-2.28,7.94-3.5,12-3.5Z"/><path fill="#ead57a" d="M236,147.96c-.56-.28-1.81-.89-2-1-2.63-2.39-1.21-5.26-3.5-7.25,1.9.14,21.04,11.45,11.75,11.25-.35,0-5.4-2.57-6.25-3Z"/><path fill="#7598ab" d="M285,215.46c-.35,3.66-.12,6.8-1,10.5h-63.5c.8-1.69,5.04-10.12,6.25-10.5h58.25Z"/><path fill="#7598ab" d="M278.5,235.46c-1.96,2.87-4.02,5.65-6,8.5-19.94,1.21-41.92-3.83-60,6.5.8-3.17,3.05-11.28,4-14l62-1Z"/><path fill="#87a7b9" d="M258,262.96c-6.78,5.02-14.21,9.45-21,14.5,1.62-3.67,2.16-15.3,1-19,5.45-.57,13.91,3.1,20,4.5Z"/><path fill="#7598ab" d="M258,262.96c-6.09-1.4-14.55-5.07-20-4.5-.05-.17-1.83-2.85-2-3l29.25-.5.75.75c-2.04,3.43-4.97,5.01-8,7.25Z"/><path fill="#87a7b9" d="M284,225.96c-.07.29.07.72,0,1h-63.5c.1-.21-.1-.8,0-1h63.5Z"/><path fill="#3b6e83" d="M272.5,243.96c-.82,1.19-4.71,9.27-5.25,9.5-12.25-.08-24.5.1-36.75,0-2.43-.02-4.08-.5-6-.5-4.37,0-8.64.49-13,.5.09-.38.57-1.28,1-3,18.08-10.33,40.06-5.29,60-6.5Z"/><path fill="#fdfdfc" d="M247.25,246.46c16.03-1.8,7.9,7.03-4.75,1.25.11-.38,4.12-1.18,4.75-1.25Z"/><path fill="#5f899d" d="M284,226.96c-2.07,7.85-5.21,8.07-5.5,8.5l-62,1c1.18-3.39,2.54-6.25,4-9.5h63.5Z"/><path fill="#fdfdfc" d="M238.25,228.96c4.16-.36,31.15-.34,33,1,6.92,5.03-38.38,4.58-41,4-7.84-1.74,1.68-4.45,8-5Z"/><path fill="#586e7e" d="M124,127.46c-1.38,1.03-1.23-.12-1.5,2-.38,2.99,1.22,1.2,1.75,2,2.06,3.15,0,1.55-3.75,11-3.16,7.95-5.28,16.26-7.5,24.5-.74,2.75-1.83,4.26-3,6.75-3.26,13.39,3.19,24.4-2.5,20.75-.71-1.3-.61-1.03-1-2.5l-.5-13c.32-5.79,2.21-11.64,2-17.5,3.29-8.68,5.06-17.69,8-26.5,1.68-5.03,5.86-7.25,3-17.5,3.05,3.67,4.06,4.42,5,10Z"/><path fill="#768895" d="M116.5,69.46c-6.87,5.73,7.65,5.16,11.25,5.5.48.34.23,4.56.25,5.5.01.78-.22,1.53.5,1.5-2.35,1.59-8.03,7.09-10.5,9.5-.13-.05-.33.04-.5,0-2.35-.48-5.1.13-7.5-.5,0-6.25,2.49-19.94,3-32,0-.17,0-.33,0-.5,2.6.68,1.77,7.79,3.5,11Z"/><path fill="#3c4753" d="M139,115.46c-.49,2.35-1.21,3.82-1,6.5.01.19.29.54.5,1.5-1.54-2.27-13.07,2.94-14.5,4-.94-5.58-1.95-6.33-5-10-.49-.59-.91-1-1.5-1.5-.09-.08.37-.96-1.5-2v-.5l23,2Z"/><path fill="#586e7e" d="M117.5,91.46l-6.5,6.5c0-.06-.35.38-.5-1-.13-1.26-.5-5.02-.5-6,2.4.63,5.15.02,7.5.5Z"/><path fill="#e0dcda" d="M227,204.96c-.22.82-.92.33-1,.75-.19.98-.13,8.98.25,9.25l59.25-.5c-.13,1.84-.49.9-.5,1h-58.25c-1.21.38-5.45,8.81-6.25,10.5-.1.2.1.79,0,1-1.46,3.25-2.82,6.11-4,9.5-.95,2.72-3.2,10.83-4,14-.43,1.72-.91,2.62-1,3-.36,1.55-.71,2.92-1,4.5-.16.85-.39,1.55-.5,2.5-1.96,16.86,4.81,16.14,6,21.25.57,2.42-.5,5.46-.5,5.75,0,1.87-.56,2.5-.5,3-1.07,1.39-1.9.01-2,0,.71-14.04-2.25-2.12-7.25-12l-1.75,8.25c-.61.58-1.4-1.24-1.5-1.25l.5-14.75c-2.14-.82-4.33-1.49-6.5-2.25,4.64-10.06,5.97-21.29,9.5-31.75,2.75-8.17,6.45-16.16,9.5-24.25,3.95-10.48,9.26-20.68,13-31.25.66-1.86.84-6.01,1-6.5.95-2.83,3.34-4.11,4.5-9.25,1.37,1.99,3.01-6.28,6-9-10.95,20.35-6.04,19.92-6,24.75.05,6.92-5.56,18.27-7,23.75Z"/><path fill="#27282d" d="M123,172.46c1.36,5.69.63,8.61,5.5,14-6.08-.13-1.9,10.15-1.5,19.75,1.86-4.69,4.59-9.41,6-14.25,6.58,1.46,16.09,6.04,21.5,10,.61.45,2.18,1.82,3,2.5.04.04.46.96.5,1-5.76-.8.28,5.02.5,5.5.89,1.97.91,3.81,1,4-.87,3.1-1.6,6.3-2,9.5-.56,4.51-1,2.81-1,3-3.63-1.52-11.68-5.72-14.5-6.5-1.87-.51-10.27-1.32-12.75-1l.25-1c4.98-3.34,10.84-5.24,16-8.25l-6.75-2.25c-2.77-.17-12.98,8.12-9.75,10.5-.19.15-1.22-.27-1.5.25.9,4.94,2.22,9.86,2.5,15,5.78,5.95,5.88,17.22,8,25.25-.13.16-1.34,3.51-1.5,3.75-.87,1.31-1.16-.02-1.5.5-.14.21.02,5.75-2,1-1.62-3.81-2.46-28.41-6-34.75-1.79-5.1-4.32-9.85-5-15.25.29-7.89-1.12-38.93-.5-42,.09-.43,1.14-.21,1.5-.25Z"/><path fill="#6f767d" d="M193.5,268.46c.42,3.32.53,6.69,1,10l-12,4c-.76-6.02.68-22.94,1.5-30,3.46-29.75,8.76-23.37,12-30,2.68-.41,1.96.64,2,3.75.01,1.23-2.68,23.31-3,24.5-1.63,6.16-11.36,14.09-1.5,17.75Z"/><path fill="#c7b6a9" d="M212,210.96c-5.56,3.12-10.88,6.56-16,10-2.41,1.62-5.27,2.95-7.75,4.5-4.89,4.15-6.5,9.99-8.25,12-.17.2-.98,1.82-1.5,1.25-.14-1.25-.32-2.51-.5-3.75-.14-.95.18-2.24,0-3,3.14,1.77,1.09-4.4,6-12.75.56-.95,7.14-8.95,8-9.75,10.29-9.57,9.66-3.45,20,1.5Z"/><path fill="#3c4753" d="M123,172.46c-.36.04-1.41-.18-1.5.25-.62,3.07.79,34.11.5,42,.68,5.4,3.21,10.15,5,15.25l-.75,1.5c-.14-2-1.66-1.51-3.25-2.25.04-1.48-.03-3.21-2-2.75-1.54-3.82-2.9-7.71-4.5-11.5-.82-1.94-1.31-5.5-3.5-10.5,2.09-4.31,4.07-.94,5-2.25.36-.51-.91-5.95-.5-12.5.42-6.64,2.05-13.27,1.5-20,4.04-1.04,3.2-.61,4,2.75Z"/><path fill="#27282d" d="M129,218.96c.1-.08.38.08.5,0l-.25,1c2.48-.32,10.88.49,12.75,1-.92.17-1.59,1.65-2,2-1.13.95-1.89,1.31-3,2.5-.54.58-3.42,2.75-3.5,3.25,3.53,9.24,6.3,18.75,9,28.25-1.45-.22-3.71,1.54-4.5,2.5-2.12-8.03-2.22-19.3-8-25.25-.28-5.14-1.6-10.06-2.5-15,.28-.52,1.31-.1,1.5-.25Z"/><path fill="#211308" d="M174.5,227.96c-.91-1.87-5.86,2.9-6,3.25-.14.35-.02,3.44,0,4.75-3.27.82-7.44-2.73-11-2.5,0-1.02-1.71-1.59,1-3.25-.29-.56-1.22.19-1.5-.75-.08-.28-.5-1.9-.5-2,0-.19.44,1.51,1-3,3.1.48,4.5-3.54,5-4,.58-.53,2.64-2.52,3.25-2.5,2.99,2.77,6.76,6.48,8.75,10Z"/><path fill="#b2b0b0" d="M196.5,268.46c2.17.76,4.36,1.43,6.5,2.25l-.5,14.75c-1.1-.11-4.34.49-5,.5-.17,0-.33,0-.5,0-2.65-1.38-2.06-4.44-2.5-7.5-.47-3.31-.58-6.68-1-10,.14.05,1.49-.53,3,0Z"/><path fill="#211308" d="M163.5,210.96c4.31,4.51,11.24,11.66,13.5,17.5.61,1.57.65,2.04,1,3.5.18.76-.14,2.05,0,3-1.16,1.56-1.56-3.58-3.5-7-1.99-3.52-5.76-7.23-8.75-10-.61-.02-2.67,1.97-3.25,2.5.16-1.78-2.38-4.23-3-5.5-.09-.19-.11-2.03-1-4-.16-2.23,2.06.27,5,0Z"/><path fill="#211308" d="M196,222.46c-3.24,6.63-8.54.25-12,30-2.35-7.05,4.13-11.88-4-15,1.75-2.01,3.36-7.85,8.25-12,2.48-1.55,5.34-2.88,7.75-4.5-.06.55.1,1.29,0,1.5Z"/><path fill="#918173" d="M213,290.46c-3.68-.48-5.46-1.45-5.75-1.5-2.23-.35-9.32.64-9.75-.75-.06-.19,3.37-2.44,0-2.25.66,0,3.9-.61,5-.5.1.01.89,1.83,1.5,1.25l1.75-8.25c5,9.88,7.96-2.04,7.25,12Z"/><path fill="#3c4753" d="M194.5,278.46c.44,3.06-.15,6.12,2.5,7.5-5.02.13-4.72-1.78-7.25,2.5-5.66-1.26-6.33,1.29-7.25-6l12-4Z"/><path fill="#606c62" d="M106.5,191.96s-.55.12-.5-.5c-.23-3.17-.18-9.23,0-12.5l.5,13Z"/><path fill="#3c4753" d="M135.5,177.46c4.41,6.02,11.84,14.21,17.5,19-1.54,2.07,1.4,3.39,1.5,5.5-5.41-3.96-14.92-8.54-21.5-10,.22-.77,1.2-1.05,1-1.75-2.07-2.08-5.17-3.38-5.5-3.75-4.87-5.39-4.14-8.31-5.5-14-.8-3.36.04-3.79-4-2.75.55,6.73-1.08,13.36-1.5,20-.41,6.55.86,11.99.5,12.5-.93,1.31-2.91-2.06-5,2.25-.59-1.35-1.32-2.69-2-4,3.12,1.39.81-8.79,1.5-16.75.36-4.2,1.31-10.9,3-14.75.52-1.19,3.66-6.29,5-4.75-2.24-2.39.19-10.17.5-16.75.71,8.96,9.13,22.67,14.5,30Z"/><path fill="#4e616c" d="M115.5,168.96c-1.69,3.85-2.64,10.55-3,14.75-.69,7.96,1.62,18.14-1.5,16.75-1.05-2.03-2.4-3.97-3.5-6,5.69,3.65-.76-7.36,2.5-20.75,1.17-2.49,2.26-4,3-6.75l2.5,2Z"/><path fill="url(#L1)" d="M128,129.46c.43,1.69,7.15,2.39,10.75,4.5,4.69,2.76,9.62,13.24,24.25,13.5v.5c-1.17,1.69-3.36,3.5-4.5,5-4.03-.31-15.29-5.63-8.75,1,3.26-.12,5.43.12,4.75,3.5-7.23,5.75-14.24,11.97-19,20-5.37-7.33-13.79-21.04-14.5-30-.2-2.49.47-4.92-.5-5,3.76-9.45,5.81-7.85,3.75-11-.53-.8-2.13.99-1.75-2,1.79-.25,3.69-.02,5.5,0Z"/><path fill="#31383e" d="M138.5,123.46c.84,3.75,3.39,7.09,7,8.5-9.1.16-10.09-2.4-17.5-2.5-1.81-.02-3.71-.25-5.5,0,.27-2.12.12-.97,1.5-2,1.43-1.06,12.96-6.27,14.5-4Z"/><path fill="#4e616c" d="M121,147.46c-.31,6.58-2.74,14.36-.5,16.75-1.34-1.54-4.48,3.56-5,4.75l-2.5-2c2.22-8.24,4.34-16.55,7.5-24.5.97.08.3,2.51.5,5Z"/><path fill="#98a1a9" d="M128,80.46c-.02-.94.23-5.16-.25-5.5-3.6-.34-18.12.23-11.25-5.5.4-.33,3.96-2.33,7.5-5,3.73-2.81,14.83-10.81,17-13,.69,1.26,4.12,5.87,4,6.75-.13,1-10.89,12.5-13,15.5-2.52,3.58-3.01,6.73-4,6.75Z"/><path fill="#c5c5c6" d="M141,44.96c1.33,2.49,3.96,2.71,6.5,3,1.32.15,1.66-.04,2,0,.25,10.17-6.68,19.09-6.5,29.5-6.67-1.09-8.94,1.14-14,4.5-.12.08-.39-.08-.5,0-.72.03-.49-.72-.5-1.5.99-.02,1.48-3.17,4-6.75,2.11-3,12.87-14.5,13-15.5.12-.88-3.31-5.49-4-6.75,3.51-3.55,1.11-2.76-5.5-.5l-2-3.5c1.33-.48,2.66-1.05,4-1.5.99-.33,2.01-.69,3-1,.15-.05.35.05.5,0Z"/><path fill="#3c4753" d="M129.5,85.46c-1.23-.21-1.43.94-1.5,1-1.72,1.35-3.44,2.41-5,4-.86.87-2.04,1.72-3,2.5-.64-.22-1.88-1.45-2-1.5,2.47-2.41,8.15-7.91,10.5-9.5.11-.08.38.08.5,0,.3,1.14.34,2.33.5,3.5Z"/><path fill="#3c4753" d="M120,92.96c-.01.17.02.34,0,.5l-8.5,8.5c-.29-1.34-.33-2.66-.5-4l6.5-6.5c.17.04.37-.05.5,0,.12.05,1.36,1.28,2,1.5Z"/><path fill="#27282d" d="M140,113.46c-.1.57-.88,1.41-1,2l-23-2c-.91-1.09-1.38-1.69-2-3,4.14-2.68,8.72-4.56,13.5-5.5,1.72,1.63,9.63,6.91,12.5,8.5Z"/><path fill="#4e616c" d="M127.5,104.96c-4.78.94-9.36,2.82-13.5,5.5-1.37-2.88-1.84-5.44-2.5-8.5l8.5-8.5c-.3,3.02,5.31,9.42,7.5,11.5Z"/><path fill="#768895" d="M149,97.46c.08-.01.19-.45,1.25-1,3.37,2.42,5.54,5.91,8.25,9,.4.46.84.89,1,1.5-.05.66.05,1.34,0,2,0,.04-.51-.14-.5.5-11.8-2.49-4.74,2.45-1,7-3.17-.62,2.27,8.2,5,7,.04.45.07,1.07,0,1.5l-25-3c-.21-2.68.51-4.15,1-6.5.12-.59.9-1.43,1-2,.02-.09.75.25.5-1.75-10.31-8.72-11.19-8.62-17.5-21.25,1.56-1.59,3.28-2.65,5-4,.4,17.94,22.88,27.28,21,11Z"/><path fill="#3c4753" d="M163,124.96c-.41,2.42-1.99,3.36-4,4.5-4.49,2.55-8.64,2.42-13.5,2.5-3.61-1.41-6.16-4.75-7-8.5-.21-.96-.49-1.31-.5-1.5l25,3Z"/><path fill="#e0dcda" d="M234,146.96c.19.11,1.44.72,2,1-2.32-.41.06,8.39-2,17.5-1.16,5.14-3.55,6.42-4.5,9.25-.16.49-.34,4.64-1,6.5-3.74,10.57-9.05,20.77-13,31.25-.69-.79-2.62-1.08-3.5-1.5-10.34-4.95-9.71-11.07-20-1.5-2.52.42,4.83-8.46,7-11,6.73-7.88,10.2-10.28,16-20,1.55-2.61,8.83-15.89,8.5-17.75-6.02-7.15-11.72-14.65-15.5-23.25,5.09-1.59,9.72-1.17,9-6.75-.14-1.09-4.35-8.01-4-11.75.03-.02.15-.19.5-.5,2.11-1.84,6.16-3.71,9-7-1.22,2.38-3.93,6.36-4,6.75-.75,4.43,10.2,20.09,11.5,26,.98,1.53,2.61,1.9,4,2.75Z"/><path fill="#c5c5c6" d="M215.5,212.46c-3.05,8.09-6.75,16.08-9.5,24.25-3.53,10.46-4.86,21.69-9.5,31.75-1.51-.53-2.86.05-3,0-9.86-3.66-.13-11.59,1.5-17.75.32-1.19,3.01-23.27,3-24.5-.04-3.11.68-4.16-2-3.75.1-.21-.06-.95,0-1.5,5.12-3.44,10.44-6.88,16-10,.88.42,2.81.71,3.5,1.5Z"/><path fill="#665213" d="M218.5,293.46c1.24.2,3.6.39,4,1-3.16,1.43-6.19,1.87-6.5,2,.47-.97-.99-3.01-.5-3.75.23-.34,2.49.67,3,.75Z"/><path fill="#090805" d="M127,229.96c3.54,6.34,4.38,30.94,6,34.75,2.02,4.75,1.86-.79,2-1,.34-.52.63.81,1.5-.5.16-.24,1.37-3.59,1.5-3.75.79-.96,3.05-2.72,4.5-2.5,1.19,4.19,1.91,10.25,4.5,13.5-3.72,5.16-2.14,3.94-2,6.5.53,9.93,2.34,7.7,11,9,3.02.45,14.37,1.78,16.5,1.5l1.5.25c2.51-6.34,5.25-3.43-1-13.5,1.81-13.05-4.28-25.49-4.5-38.25-.02-1.31-.14-4.4,0-4.75.14-.35,5.09-5.12,6-3.25,1.94,3.42,2.34,8.56,3.5,7,.18,1.24.36,2.5.5,3.75.52.57,1.33-1.05,1.5-1.25,8.13,3.12,1.65,7.95,4,15-.82,7.06-2.26,23.98-1.5,30,.92,7.29,1.59,4.74,7.25,6,2.53-4.28,2.23-2.37,7.25-2.5.17,0,.33,0,.5,0,3.37-.19-.06,2.06,0,2.25.43,1.39,7.52.4,9.75.75.29.05,2.07,1.02,5.75,1.5.1.01.93,1.39,2,0,.34,2.79,2.9.93,3.5,3-.51-.08-2.77-1.09-3-.75-.49.74.97,2.78.5,3.75-3.61,1.51-9.52,3.28-10,3.5,1.83-5.06,1.05-7.12-4.75-6-.48.09-.02,1.42-.5,1.5-14.52,2.42-15.21,1.64,4,2l1.25,2.5c-8.42,3.91-36.44,27.48-43.25,26-3.49-.76-47.66-40.58-56-44.5-9.75,2.35-16.61-9.47-21.75-16,.63-4.55,3.59-9.51,7.5-12,4.75-3.02,27.6-6.88,34.75-7,.52-.37.17-2.72.25-3.5.05-.48.02-1.01,0-1.5-.23-5.84-2.67-6.25-4.5-10.5-.06-.14.06-.36,0-.5-.58-1.36-1.45-2.63-2-4,1.97-.46,2.04,1.27,2,2.75,1.59.74,3.11.25,3.25,2.25l.75-1.5Z"/><path fill="#1d1808" d="M126,254.96c-2.26,3.11-1.36,2.81-.5,6-5.36-1.16-10.62-4.62-15.75-6.5-1.69-.62-8.47-.97-7.25-2.75,7.68.31,17.03-.96,23.5,3.25Z"/><path fill="#1d1808" d="M199.75,298.46c3.66.47-7.88,7.14-9,7.5-7.14,2.3-21.38.46-28.75-2.25,14.65,3.47,24.45,1.18,37.75-5.25Z"/><path fill="#422c07" d="M206,299.96l-1.25-2.5c-19.21-.36-18.52.42-4-2,.48-.08.02-1.41.5-1.5,5.8-1.12,6.58.94,4.75,6Z"/><path fill="#28241d" d="M125.5,260.96c-.86-3.19-1.76-2.89.5-6,4.57,2.97,7.91,7.82-.5,6Z"/><path fill="#281003" d="M161.25,294.96c25.11,1.02,7.03,4.5.5,1.5-.41-.19-1.2-1.26-.5-1.5Z"/><path fill="#64592e" d="M236,255.46c.17.15,1.95,2.83,2,3,1.16,3.7.62,15.33-1,19-.92,2.09-3.16,3.63-4.5,5.5-.46.64-2.24.82-2,2h-.5c3.23-8.8,6.5-15.44,4.5-25.25-1-4.93-3.41-4.69-2.5-5.75,1.17.33,3.1.74,4,1.5Z"/><path fill="#1d1808" d="M230,284.96h.5c.31,6.23-3.36,7.4-8,9.5-.4-.61-2.76-.8-4-1-.6-2.07-3.16-.21-3.5-3-.06-.5.49-1.13.5-3,2.87,2.85,3.93.16,6.5-.5,2.63-.67,5.43-.91,8-2Z"/><path fill="#493c20" d="M230.5,253.46c.59.45,1.01.36,1.5.5-.91,1.06,1.5.82,2.5,5.75,2,9.81-1.27,16.45-4.5,25.25-2.57,1.09-5.37,1.33-8,2,4.76-9.64,9.87-24.79,2.5-34,1.92,0,3.57.48,6,.5Z"/><path fill="#5d5039" d="M224.5,252.96c7.37,9.21,2.26,24.36-2.5,34-2.57.66-3.63,3.35-6.5.5,0-.29,1.07-3.33.5-5.75-1.19-5.11-7.96-4.39-6-21.25,7.45-1.69,15.38,6.99,10.5-.75-2.03-3.22-6.83-3.38-10-1.75.29-1.58.64-2.95,1-4.5,4.36,0,8.63-.5,13-.5Z"/><path fill="#1d1808" d="M210,260.46c.11-.95.34-1.65.5-2.5,3.17-1.63,7.97-1.47,10,1.75,4.88,7.74-3.05-.94-10.5.75Z"/><path fill="#626870" d="M178.5,226.96c-.26.43.75,1.86-1.5,1.5-2.26-5.84-9.19-12.99-13.5-17.5-1.84-1.93-3.46-3.75-5.5-5.5-.04-.04-.46-.96-.5-1,.42-.53,1.83-2.94,2-3,.11-.04.38-.02.5,0,3.4.48,18.72,19.93,18.5,25.5Z"/><path fill="#3c4753" d="M128.5,186.46c.33.37,3.43,1.67,5.5,3.75.2.7-.78.98-1,1.75-1.41,4.84-4.14,9.56-6,14.25-.4-9.6-4.58-19.88,1.5-19.75Z"/><path fill="#3c4753" d="M129.5,218.96c-.12.08-.4-.08-.5,0-3.23-2.38,6.98-10.67,9.75-10.5l6.75,2.25c-5.16,3.01-11.02,4.91-16,8.25Z"/><path fill="#211308" d="M162.5,220.46c-.5.46-1.9,4.48-5,4,.4-3.2,1.13-6.4,2-9.5.62,1.27,3.16,3.72,3,5.5Z"/><path fill="#54585e" d="M159,200.46s.45.79.5,1c-.17.06-1.58,2.47-2,3-.82-.68-2.39-2.05-3-2.5-.1-2.11-3.04-3.43-1.5-5.5,1.85,1.56,4,2.68,6,4Z"/><path fill="#28241d" d="M158,205.46c2.04,1.75,3.66,3.57,5.5,5.5-2.94.27-5.16-2.23-5,0-.22-.48-6.26-6.3-.5-5.5Z"/><path fill="#b2b0b0" d="M168.5,235.96c.22,12.76,6.31,25.2,4.5,38.25,6.25,10.07,3.51,7.16,1,13.5l-1.5-.25c-.96-4.38-1.26-3.21-3.5-3.5l-1.5-14.25c-.79-1.22-6.48-1.85-8-2.25-2.06-.54-4.72-1.21-6.5-2.5l5-6.75c-.9-8.19-.52-16.53-.5-24.75,3.56-.23,7.73,3.32,11,2.5Z"/><path fill="#3c4753" d="M140,222.96c5.29,1.83,13.17,7.89,17,6.5.28.94,1.21.19,1.5.75-2.71,1.66-1,2.23-1,3.25-.02,8.22-.4,16.56.5,24.75l-5,6.75c-2.05,1.39-.55,8.68-1.5,15-.36-.14-.89,2.27-6.5-3-.14-2.56-1.72-1.34,2-6.5.59-.81,4.59-4,5-5.25,1.69-5.15-8.74-35.09-15-39.75,1.11-1.19,1.87-1.55,3-2.5Z"/><path fill="#3c4753" d="M147,270.46c-2.59-3.25-3.31-9.31-4.5-13.5-2.7-9.5-5.47-19.01-9-28.25.08-.5,2.96-2.67,3.5-3.25,6.26,4.66,16.69,34.6,15,39.75-.41,1.25-4.41,4.44-5,5.25Z"/><path fill="#27282d" d="M151.5,279.96c2.42.95,5,1.72,7,3.5-.05.16.05.36,0,.5-.5,1.25,1,1.07-2.5,2-8.66-1.3-10.47.93-11-9,5.61,5.27,6.14,2.86,6.5,3Z"/><path fill="#474541" d="M169,283.96c2.24.29,2.54-.88,3.5,3.5-2.13.28-13.48-1.05-16.5-1.5,3.5-.93,2-.75,2.5-2,2.59-1.24,3.19,1.4,4.25-3-.02,4.8,1.76,2.43,6.25,3Z"/><path fill="#3c4753" d="M156.5,227.46c0,.1.42,1.72.5,2-3.83,1.39-11.71-4.67-17-6.5.41-.35,1.08-1.83,2-2,2.82.78,10.87,4.98,14.5,6.5Z"/><path fill="#888f96" d="M169,283.96c-4.49-.57-6.27,1.8-6.25-3-1.06,4.4-1.66,1.76-4.25,3,.05-.14-.05-.34,0-.5,1.09-3.89.19-11.22,1-16,1.52.4,7.21,1.03,8,2.25l1.5,14.25Z"/><path fill="#586e7e" d="M159.5,267.46c-.81,4.78.09,12.11-1,16-2-1.78-4.58-2.55-7-3.5.95-6.32-.55-13.61,1.5-15,1.78,1.29,4.44,1.96,6.5,2.5Z"/><path fill="#c5c5c6" d="M185.5,144.96c.83,2.98,3.23,8.26,3.5,10.25,1.39,10.25-5.68,17.67,10,43.25-2.17,2.54-9.52,11.42-7,11-.86.8-7.44,8.8-8,9.75-4.91,8.35-2.86,14.52-6,12.75-.35-1.46-.39-1.93-1-3.5,2.25.36,1.24-1.07,1.5-1.5,6.77-11.09,5.82-25.82,6.5-38.25-1.52-3.92-19.59,1.26-25,12.75-.12-.02-.39-.04-.5,0-.05-.21-.45-.97-.5-1,.84-2.48,2.64-4.35,4-6.5,8.39-13.21,16-34.34,19.5-49.5.11-.47.44-1.85.5-2,.03-.07.76-.95,1-1,.14,1.13,1.45,3.32,1.5,3.5Z"/><path fill="#e0dcda" d="M163,42.46l5,4c-3.21,1.26-2.74,2.8-5,3-4.35-1.5-9.06-1-13.5-1.5-.34-.04-.68.15-2,0l-1-4.5c1.6-.41,1.88-1.48,2-1.5,5.19-1.05,10.22.69,14.5.5Z"/><path fill="#c5c5c6" d="M187,42.46c-.05.11-.43,2.71,0,2.5-.41,1.94-6.25,4.38-8.5,4.5.16-1.24,1.25-2.39-.25-3.5-4.29.03-5.46-.67-9.25.5-.27.08-.78-.09-1,0l-5-4c2.94-.13,12.07-3.53,24,0Z"/><path fill="#c5c5c6" d="M146.5,43.46l1,4.5c-2.54-.29-5.17-.51-6.5-3,1.9-.59,3.59-1.01,5.5-1.5Z"/><path fill="#e0dcda" d="M224.5,107.46c-.65,1.41-1.3,2.64-2,4-2.84,3.29-6.89,5.16-9,7-1.85-3.56-3.11,1.63-6.75-8-1.09.72-2.12,1.93-2.25,2-2.83,1.51-5.67,2.99-8.5,4.5-19.52-21.08-7.64-9.29.75-15,2.36-1.61,2-3.09,2.25-5.5,1.54-.95,1.45-2.02,3-3,4.69-2.97,10.29,18.08,10,22.25,11.47-3.21.02-26.27-9-28.25,0-1.28-.08-2.29-.5-3.5,6.47,4.53,18.27,16.34,22,23.5Z"/><path fill="#e0dcda" d="M190,45.96c-.04.4-1.06,1.23-.25,2.5.35.26,1.38-.57,3.25-.5,2.7,2.97,6.15,5.13,9,8,2.17,2.19,4.81,6.95,7.5,8,.82,1.95,1.94,3.69,3,5.5-.14.74,0,2.44-1.25,2.5-2.39.05-27.3-19.58-33-19-1.79-1.42.05-1.92.25-3.5,2.25-.12,8.09-2.56,8.5-4.5l3,1Z"/><path fill="#a88584" d="M133,16.46c5.02,6.54,9.07,13.77,13,21,.81,1.49,1.9,2.88,2.5,4.5-.12.02-.4,1.09-2,1.5-1.91.49-3.6.91-5.5,1.5-.15.05-.35-.05-.5,0-5.87-2.86-3.69-2.49-4-6.5,0-.05,1.06.14,1-.25-3.51-3.89-7.12-7.75-10.5-11.75v-6.25c2.53,2.2,3.88-3.97,6-3.75Z"/><path fill="#572831" d="M115,18.46c.13,1.42.99,2.13,1,2.25.33,4.42-.57,8.84.5,13.25.1.41-.85.79-.5,1.25l1.25.75c4.03,1.12,8.38,1.91,12.25,3.5-1.82,1.34-7.91,10.49-9.25,10.5-1.61.01-4.24-5.08-6.75-6.5-.06-4.57-4.45-19.68.5-34,2.77.97,0,2.56,0,2.75,0,.18,1,.81,1,1,0,1.83-.28,2.12,0,5.25Z"/><path fill="#7d5458" d="M125,7.46c-1.48,1.69-1.45,18.95-1,20.25.11.32,2.2,1.39,4,5.5-3.36.9-5.7-.26-6-.25,1.54-8.08-1.86-7.33-4.5-11.75-.99-1.66,1.14-4.82-2.5-2.75-.28-3.13,0-3.42,0-5.25,0-.19-1-.82-1-1,0-.19,2.77-1.78,0-2.75,2.73-7.88,5.73-6.07,11-2Z"/><path fill="#8a6a6e" d="M129.5,12.46c-3.11-1.02-2.69,7.76-5,10.75v1.5c.5.52,2.36,1.59,2.5,1.75,3.38,4,6.99,7.86,10.5,11.75.06.39-1,.2-1,.25-3.52-.64-.84,2.57-3,2.5-1.52-1.26-3.8-1.42-4-1.5-3.87-1.59-8.22-2.38-12.25-3.5l-1.25-.75c-.35-.46.6-.84.5-1.25,1.43,0,4.48-.97,5.5-1,.3,0,2.64,1.15,6,.25-1.8-4.11-3.89-5.18-4-5.5-.45-1.3-.48-18.56,1-20.25,2.06,1.59,2.88,3.18,4.5,5Z"/><path fill="#572831" d="M120,52.96c.14.2,1.82,4.02,2,4.5.89,2.36,1,4.7,2,7-3.54,2.67-7.1,4.67-7.5,5-1.73-3.21-.9-10.32-3.5-11,.04-1.16-.02-2.34,0-3.5,4.8,2.23,2.43-2.47,0-4.5-.01-1.17.02-2.33,0-3.5,1.56.83,6.35,5.03,7,6Z"/><path fill="#8a6a6e" d="M133.5,40.96c1.9,1.58,1.42,3.64,4,5-1.34.45-2.67,1.02-4,1.5-4.55,1.64-9.21,3.23-13.5,5.5-.65-.97-5.44-5.17-7-6-.09-4.82.5-3.3.5-3.5,2.51,1.42,5.14,6.51,6.75,6.5,1.34-.01,7.43-9.16,9.25-10.5.2.08,2.48.24,4,1.5Z"/><path fill="#8a6a6e" d="M129.5,12.46c1.25,1.4,2.29,2.43,3.5,4-2.12-.22-3.47,5.95-6,3.75v6.25c-.14-.16-2-1.23-2.5-1.75v-1.5c2.31-2.99,1.89-11.77,5-10.75Z"/><path fill="#524864" d="M113,54.96c.02-1.5.01-3,0-4.5,2.43,2.03,4.8,6.73,0,4.5Z"/><path fill="#a88584" d="M136.5,38.46c.31,4.01-1.87,3.64,4,6.5-.99.31-2.01.67-3,1-2.58-1.36-2.1-3.42-4-5,2.16.07-.52-3.14,3-2.5Z"/><path fill="#6a3f46" d="M122,32.96c-1.02.03-4.07,1.01-5.5,1-1.07-4.41-.17-8.83-.5-13.25,0-.12-.87-.83-1-2.25,3.64-2.07,1.51,1.09,2.5,2.75,2.64,4.42,6.04,3.67,4.5,11.75Z"/><path fill="#736a70" d="M141,51.46c-2.17,2.19-13.27,10.19-17,13-1-2.3-1.11-4.64-2-7,4.26-2.3,8.93-4.94,13.5-6.5,6.61-2.26,9.01-3.05,5.5.5Z"/><path fill="#928a8d" d="M135.5,50.96c-4.57,1.56-9.24,4.2-13.5,6.5-.18-.48-1.86-4.3-2-4.5,4.29-2.27,8.95-3.86,13.5-5.5l2,3.5Z"/><path fill="url(#L2)" d="M227,40.46c-.22,2.05-.37,3.02-1,5-1.98-.6-10.92-6.59-12-5.25-.21,1.26.83,2.27,1.5,3.25-3.08,3.73-3.24,6.08,2.5,5.5.83,2.92-.92,1.3-1.5,1.5-3.06-1.09-9.38-2.29-12.5-2.5-.05-.42.12-.47.5-.5,3.23-.26,5.54-2.02-1-3.5-6.05-1.37-7.18-.98-13.5,1,.26-1.44,2.68-7.69,3.5-9.5.72-1.59,5.66-10.1,7-12.25,2.24-3.59,5.82-5.75,3.5-6.75,4.55-4.9,5.15-5.71,11-9.5,9.45-4.8,13.15,22.9,12,33.5Z"/><path fill="#c4ada9" d="M193.5,35.46c-1.58,1.15-1.49-.02-2.5-1,.84-1.54,2.08-4.32,2.5-5,1.92-3.13,4.66-6.64,7-9.5.9-1.11,2.54-2.47,3.5-3.5,2.32,1-1.26,3.16-3.5,6.75-1.34,2.15-6.28,10.66-7,12.25Z"/><path fill="#c4ada9" d="M204,47.96c3.12.21,9.44,1.41,12.5,2.5-5.75,1.97-4.38.91,0,4-.77.86-4.72.83-5.25,1.5-.57.72-.08,2.12-.25,3-1.3,6.94,0-.27-3.5-3h-5.5c-2.85-2.87-6.3-5.03-9-8,3.64.14,7.37-.25,11,0Z"/><path fill="#802832" d="M226,45.46c-1.56,4.86-3.03,5.22-3,7-.86.72-2.77-.81-3.5,4.75-.29.58-.81-.52-1-.25.39-1.9-.9-1.73-2-2.5-4.38-3.09-5.75-2.03,0-4,.58-.2,2.33,1.42,1.5-1.5,4.48-.46-.24-2.21-2.5-5.5-.67-.98-1.71-1.99-1.5-3.25,1.08-1.34,10.02,4.65,12,5.25Z"/><path fill="#bf9992" d="M203.5,43.96l1,3.5c-.38.03-.55.08-.5.5-3.63-.25-7.36.14-11,0-1.87-.07-2.9.76-3.25.5-.81-1.27.21-2.1.25-2.5.03-.33-.06-.68,0-1,6.32-1.98,7.45-2.37,13.5-1Z"/><path fill="#c5c5c6" d="M193.5,35.46c-.82,1.81-3.24,8.06-3.5,9.5-.06.32.03.67,0,1l-3-1c-.43.21-.05-2.39,0-2.5,1.22-2.67,2.59-5.42,4-8,1.01.98.92,2.15,2.5,1Z"/><path fill="#934048" d="M218,48.96c-5.74.58-5.58-1.77-2.5-5.5,2.26,3.29,6.98,5.04,2.5,5.5Z"/><path fill="#b27974" d="M204.5,47.46l-1-3.5c6.54,1.48,4.23,3.24,1,3.5Z"/><path fill="#802832" d="M228,47.96c-2.13,3.46-5.51,27.39-7.75,28-5.29,1.43-3.86-9.43-5.25-15,2-.37,2.54-2.59,3.5-4,.19-.27.71.83,1,.25.73-5.56,2.64-4.03,3.5-4.75.17-.14,1.63-.23,3.5-2.75.87-1.18.12-4.16,1.5-1.75Z"/><path fill="#a55e5e" d="M211,58.96c2.9.92,1.56-1.68,3,0-1.72,2.58-.95,7.64-1.5,10.5-1.06-1.81-2.18-3.55-3-5.5-1.16-2.74-3.01-7.75-2-8,3.5,2.73,2.2,9.94,3.5,3Z"/><path fill="#b27974" d="M218.5,56.96c-.96,1.41-1.5,3.63-3.5,4-.15-.58-.58-1.51-1-2-1.44-1.68-.1.92-3,0,.17-.88-.32-2.28.25-3,.53-.67,4.48-.64,5.25-1.5,1.1.77,2.39.6,2,2.5Z"/><path fill="#bf9992" d="M207.5,55.96c-1.01.25.84,5.26,2,8-2.69-1.05-5.33-5.81-7.5-8h5.5Z"/><path fill="#768895" d="M171,148.46c.6,1.31,1.67,4.02,3,3.5-2.76,3.07-8.46,10.49-9.5,14.25l-1.5,27.75c-1.36,2.15-3.16,4.02-4,6.5-2-1.32-4.15-2.44-6-4-5.66-4.79-13.09-12.98-17.5-19,4.76-8.03,11.77-14.25,19-20,2.68.32,3.34-1.4,3.5-1.5,3.96-2.43,8.73-3.97,12-7.5.31-.06.75.08,1,0Z"/><path fill="#211308" d="M145.5,131.96c4.86-.08,9.01.05,13.5-2.5v4c-2.19.81-4.46,1.5-6.75,2-1.74,1.85,9.49,8.49,13.75,8.5-1.03,1.1-1.41,2.86-3,3.5-14.63-.26-19.56-10.74-24.25-13.5-3.6-2.11-10.32-2.81-10.75-4.5,7.41.1,8.4,2.66,17.5,2.5Z"/><path fill="#4e4239" d="M180,141.46c-1.49.11-8.46,6.83-9,7-.25.08-.69-.06-1,0-2.09.38-4.88-.17-7-.5v-.5c1.59-.64,1.97-2.4,3-3.5.57-.61,2.04-2.38,2.5-3,.13.1-.26,1.24.25,1.5h2c2.23-.38,5.92-2.42,6.25-2.5,1.75-.42,4.69-1.38,3,1.5Z"/><path fill="#474541" d="M170,148.46c-3.27,3.53-8.04,5.07-12,7.5-2.35-.83-1.15-.82.5-3,1.14-1.5,3.33-3.31,4.5-5,2.12.33,4.91.88,7,.5Z"/><path fill="#3c4753" d="M158.5,152.96c-1.65,2.18-2.85,2.17-.5,3-.16.1-.82,1.82-3.5,1.5.68-3.38-1.49-3.62-4.75-3.5-6.54-6.63,4.72-1.31,8.75-1Z"/><path fill="#c5c5c6" d="M163,49.46c-5.39,7.01-2.27,14.53-6,13.5-.25-2.45-.27-6.19,1-8.25-.66-1.48-6.9,5.67-8.5,12.25-.94,3.86-.78,6.67-1,10.5-.06,1.06.28,2.04-.5,2-1.48-1.1-3.19-1.7-5-2-.18-10.41,6.75-19.33,6.5-29.5,4.44.5,9.15,0,13.5,1.5Z"/><path fill="#e0dcda" d="M129.5,85.46c1.64,12.33,8.87,13.47,19.5,12,1.88,16.28-20.6,6.94-21-11,.07-.06.27-1.21,1.5-1Z"/><path fill="#768895" d="M140,113.46c-2.87-1.59-10.78-6.87-12.5-8.5-2.19-2.08-7.8-8.48-7.5-11.5.02-.16-.01-.33,0-.5.96-.78,2.14-1.63,3-2.5,6.31,12.63,7.19,12.53,17.5,21.25.25,2-.48,1.66-.5,1.75Z"/><path fill="#e0dcda" d="M169,46.46c-2.8,4.54-2.95,11.67-2,16.75,2.41,12.92,5.11,1.43,7,4.5,4.9,15.01.08,13.2-3.5,23.5-.91,2.63-4.31,17.37-5,18-.92.84-4.65-1.65-5,.25-.33-.11-1.03.27-1-.5.05-.66-.05-1.34,0-2,.29-4.25.91-8.62,2-12.75.46-9.74-.97-12.69-2-20.25-.59-4.32-2.33-9.34-2.5-11,3.73,1.03.61-6.49,6-13.5,2.26-.2,1.79-1.74,5-3,.22-.09.73.08,1,0Z"/><path fill="#768895" d="M159.5,73.96c1.03,7.56,2.46,10.51,2,20.25-1.09,4.13-1.71,8.5-2,12.75-.16-.61-.6-1.04-1-1.5-.25-6.3-5.96-22.6-10.5-26,.78.04.44-.94.5-2,1.44.17,1.92-3.07,2.5-5,.41-1.35,1.2-2.52,1-4,2.72,1.65,5.21,3.26,7.5,5.5Z"/><path fill="#281003" d="M159,109.46c0,.4-.27.51-.5.75,3.36,1.95,4.92,5.5,6.75,8.75,2.35-3.01,3.56-7.58,8.25-6.5,0,.93-4.12,5.3-5,6.5-1.19,1.63-3.48.85-.5,6.25,4.06,7.36,21,10.94,7.5,10.75-1.12-.02-2.43-.23-3.5-.5-1.31-.33-5.61-3-6.75-4.5-1.19-.24-2.76,1.52-5.75,2.5-.15.05-.35-.05-.5,0v-4c2.01-1.14,3.59-2.08,4-4.5.07-.43.04-1.05,0-1.5-.32-4.04-3.32-4.95-5-7-3.74-4.55-10.8-9.49,1-7Z"/><path fill="#9c1730" d="M160.5,109.46c7.49,2.53,12.99.21,13,3-4.69-1.08-5.9,3.49-8.25,6.5-1.83-3.25-3.39-6.8-6.75-8.75.23-.24.51-.35.5-.75-.01-.64.5-.46.5-.5-.03.77.67.39,1,.5Z"/><path fill="#98a1a9" d="M158,116.46c1.68,2.05,4.68,2.96,5,7-2.73,1.2-8.17-7.62-5-7Z"/><path fill="#e0dcda" d="M198,140.96c2.13,13.82,10.86,25.19,17,37.5-5.8,9.72-9.27,12.12-16,20-15.68-25.58-8.61-33-10-43.25-.27-1.99-2.67-7.27-3.5-10.25,4.28-.93,8.4-2.51,12.5-4Z"/><path fill="#e0dcda" d="M208,137.46c3.78,8.6,9.48,16.1,15.5,23.25.33,1.86-6.95,15.14-8.5,17.75-6.14-12.31-14.87-23.68-17-37.5.16-.06.98-1.4,2.75-2,2.43-.83,6.05-1.13,7.25-1.5Z"/><path fill="#e0dcda" d="M208,137.46c-1.2.37-4.82.67-7.25,1.5-1.77.6-2.59,1.94-2.75,2-4.1,1.49-8.22,3.07-12.5,4-.05-.18-1.36-2.37-1.5-3.5-.04-.33.03-.67,0-1,5.23-1.02,9.68-4.02,14.5-6,5.1-2.1,23.13-6.28,6-6.5,2.78-3.07,5.39-6.24,8.5-9-.35,3.74,3.86,10.66,4,11.75.72,5.58-3.91,5.16-9,6.75Z"/><path fill="#c7b6a9" d="M213.5,118.46c-.35.31-.47.48-.5.5-3.11,2.76-5.72,5.93-8.5,9-2.04-.03-3.95-.57-6,0,.82-.83,3.27-4.79,5-6.25-7.11-.21-3.94-.67-5-1.75,9.35-1.87,9.59,1,6-7.5.13-.07,1.16-1.28,2.25-2,3.64,9.63,4.9,4.44,6.75,8Z"/><path fill="#b2b0b0" d="M178.5,226.96c.22-5.57-15.1-25.02-18.5-25.5,5.41-11.49,23.48-16.67,25-12.75-.68,12.43.27,27.16-6.5,38.25Z"/><path fill="#98a1a9" d="M182.5,144.46c-3.5,15.16-11.11,36.29-19.5,49.5l1.5-27.75c1.04-3.76,6.74-11.18,9.5-14.25,1.75-1.95,6.2-6.1,8.5-7.5Z"/><path fill="#ab9d92" d="M169,119.46c1.15,2.38,3.47,4.4,5.5,6,5.3,4.17,6.9,4.2,13,6.5-6.93,4.24-3.21,3.35-3,4,.83,2.57-.65,3.01-.5,4.5.03.33-.04.67,0,1-.24.05-.97.93-1,1-1.31.32-2.54-1.03-3-1,1.69-2.88-1.25-1.92-3-1.5l-1.5-4c13.5.19-3.44-3.39-7.5-10.75-2.98-5.4-.69-4.62.5-6.25-.05.62.48.47.5.5Z"/><path fill="#7b7874" d="M180,141.46c.46-.03,1.69,1.32,3,1-.06.15-.39,1.53-.5,2-2.3,1.4-6.75,5.55-8.5,7.5-1.33.52-2.4-2.19-3-3.5.54-.17,7.51-6.89,9-7Z"/><path fill="#e0dcda" d="M193.5,131.46c-3.01,1.94-5.54,3.48-9,4.5-.21-.65-3.93.24,3-4,.2-.12,1.9.39,4-2.25-.18-1.56-11.72-4.43-13.75-5.25-2.04-.83-7.77-6.5-3.25,1-2.03-1.6-4.35-3.62-5.5-6,2.89-3.97,21.69,2.23,23.5,6.25,1.38,3.07-.61,4.9,1,5.75Z"/><path fill="#c7b6a9" d="M204.5,127.96c-1.98,2.2-3.82,4.47-6,6.5-4.82,1.98-9.27,4.98-14.5,6-.15-1.49,1.33-1.93.5-4.5,3.46-1.02,5.99-2.56,9-4.5,1.74-1.12,3.52-2,5-3.5,2.05-.57,3.96-.03,6,0Z"/><path fill="#796c5a" d="M198.5,119.96c-1.52-1.55-1.97-2.43-2.5-3,2.83-1.51,5.67-2.99,8.5-4.5,3.59,8.5,3.35,5.63-6,7.5Z"/><path fill="#e0dcda" d="M178.5,49.46c-.2,1.58-2.04,2.08-.25,3.5,5.7-.58,30.61,19.05,33,19,1.24-.06,1.11-1.76,1.25-2.5.55-2.86-.22-7.92,1.5-10.5.42.49.85,1.42,1,2,1.39,5.57-.04,16.43,5.25,15,2.24-.61,5.62-24.54,7.75-28,1.31,2.28-.93,18.57-1,22.25-.21,10.52.39,20.99.5,31.5l-1.5,5c-.7,1.03-1.46.67-1.5.75-3.73-7.16-15.53-18.97-22-23.5-5.31-3.72-9.15-6.19-16.25-4-5.4,1.66-5.49,7.63-6.75,12-2.12,7.36-5.6,16.26,3,4,4.74,3.31,11.7,3.48,16.5.5-.25,2.41.11,3.89-2.25,5.5-8.39,5.71-20.27-6.08-.75,15,.53.57.98,1.45,2.5,3,1.06,1.08-2.11,1.54,5,1.75-1.73,1.46-4.18,5.42-5,6.25-1.48,1.5-3.26,2.38-5,3.5-1.61-.85.38-2.68-1-5.75-1.81-4.02-20.61-10.22-23.5-6.25-.02-.03-.55.12-.5-.5.88-1.2,5-5.57,5-6.5,0-2.79-5.51-.47-13-3,.35-1.9,4.08.59,5-.25.69-.63,4.09-15.37,5-18,3.58-10.3,8.4-8.49,3.5-23.5-1.89-3.07-4.59,8.42-7-4.5-.95-5.08-.8-12.21,2-16.75,3.79-1.17,4.96-.47,9.25-.5,1.5,1.11.41,2.26.25,3.5Z"/><path fill="#bb5258" d="M182.5,95.96c-8.6,12.26-5.12,3.36-3-4,.36.98,2.49,3.65,3,4Z"/><path fill="#bb5258" d="M183.25,68.96c.31.19.43,6.02.25,6.75-1.26,4.99-3.95-2.93-.25-6.75Z"/><path fill="#e0dcda" d="M202,93.46c.82-2.22,1-3.64,1-6,9.02,1.98,20.47,25.04,9,28.25.29-4.17-5.31-25.22-10-22.25Z"/><path fill="#474541" d="M159,133.46c.15-.05.35.05.5,0,2.31,3.25,5.91,5.16,9,7.5-.46.62-1.93,2.39-2.5,3-4.26,0-15.49-6.65-13.75-8.5,2.29-.5,4.56-1.19,6.75-2Z"/><path fill="#e7d2bd" d="M175.5,135.96l1.5,4c-.33.08-4.02,2.12-6.25,2.5h-2c-.51-.26-.12-1.4-.25-1.5,1.32-1.78,2.78-3.33,3.5-5.5,1.07.27,2.38.48,3.5.5Z"/><path fill="#211308" d="M143,77.46c1.81.3,3.52.9,5,2,4.54,3.4,10.25,19.7,10.5,26-2.71-3.09-4.88-6.58-8.25-9-1.06.55-1.17.99-1.25,1-10.63,1.47-17.86.33-19.5-12-.16-1.17-.2-2.36-.5-3.5,5.06-3.36,7.33-5.59,14-4.5Z"/><path fill="#fbed2e" d="M137.75,81.96c-2.8,6.95,1.03,12.16,6,10.5,2.4-.8.04-9.73,3.75-6.25.49.46,1.29,5.33-1.75,7.25-7.41,4.68-17.98-6.49-8-11.5Z"/><path fill="#fdfdfc" d="M141.75,81.96c1.93-.87,5.5,2.75,3,4-2.89,1.44-5.25-2.99-3-4Z"/><path fill="#abb4bb" d="M157,62.96c.17,1.66,1.91,6.68,2.5,11-2.29-2.24-4.78-3.85-7.5-5.5-.53-.32-.98-.67-1.5-1-.29-.18-.66-.42-1-.5,1.6-6.58,7.84-13.73,8.5-12.25-1.27,2.06-1.25,5.8-1,8.25Z"/><path fill="#572831" d="M150.5,67.46c-.09,1.64-1.55,5.08.5,5-.58,1.93-1.06,5.17-2.5,5,.22-3.83.06-6.64,1-10.5.34.08.71.32,1,.5Z"/><path fill="#944a5f" d="M152,68.46c.2,1.48-.59,2.65-1,4-2.05.08-.59-3.36-.5-5,.52.33.97.68,1.5,1Z"/><path fill="#6f767d" d="M172,135.46c-.72,2.17-2.18,3.72-3.5,5.5-3.09-2.34-6.69-4.25-9-7.5,2.99-.98,4.56-2.74,5.75-2.5,1.14,1.5,5.44,4.17,6.75,4.5Z"/><path fill="#c7b6a9" d="M198.5,134.46c2.18-2.03,4.02-4.3,6-6.5,17.13.22-.9,4.4-6,6.5Z"/><path fill="#d7c9c0" d="M187.5,131.96c-6.1-2.3-7.7-2.33-13-6.5-4.52-7.5,1.21-1.83,3.25-1,2.03.82,13.57,3.69,13.75,5.25-2.1,2.64-3.8,2.13-4,2.25Z"/><path fill="#441d0d" d="M202.5,83.96c.42,1.21.5,2.22.5,3.5,0,2.36-.18,3.78-1,6-1.55.98-1.46,2.05-3,3-4.8,2.98-11.76,2.81-16.5-.5-.51-.35-2.64-3.02-3-4,1.26-4.37,1.35-10.34,6.75-12,7.1-2.19,10.94.28,16.25,4Z"/><path fill="#fbed2e" d="M190,86.96c-4.02,2.47,2.57,10.53,5,3.25-1.7-1.5-2.08-1.89-.5-3.75.22.26,1.05-1.6,4,5-2.04,3.72-9.1,5.03-12.75,3-7.32-4.07,2.28-14.98,4.25-7.5Z"/><path fill="#422c07" d="M199,85.96c-2.46-2.55-8.31-3.97-4.5.5-1.58,1.86-1.2,2.25.5,3.75-2.43,7.28-9.02-.78-5-3.25,1.04-.64,6.03,1.43,1-2.75-.32-2.02,6.85-3.2,8,1.75Z"/><path fill="#f9f9d2" d="M199,85.96c.62,2.68.87,3-.5,5.5-2.95-6.6-3.78-4.74-4-5-3.81-4.47,2.04-3.05,4.5-.5Z"/></g><g opacity=".75"><path fill="#1164b0" d="M68.74,216.2c0,6.06-1.47,10.71-4.4,13.94-2.94,3.23-7.3,4.85-13.09,4.85-1.52,0-3.02-.14-4.5-.41-1.49-.27-3.02-.72-4.59-1.34l2.88-7.83c1,.38,1.93.67,2.8.87.87.2,1.79.3,2.76.3,2.7,0,4.74-.8,6.11-2.39,1.37-1.6,2.05-4.25,2.05-7.95l.12-40.42h9.82l.04,40.38Z"/><path fill="#5ebb47" d="M89.12,183.93c-1.76,0-3.21-.55-4.36-1.66-1.15-1.11-1.72-2.48-1.72-4.1,0-1.7.57-3.1,1.72-4.18,1.15-1.08,2.6-1.62,4.36-1.62s3.22.54,4.38,1.62c1.16,1.08,1.75,2.48,1.75,4.18s-.58,3.02-1.75,4.12c-1.16,1.1-2.62,1.64-4.38,1.64ZM93.87,234.01h-9.66v-42.57h9.66v42.57Z"/><path fill="#5ebb47" d="M173.09,234.01h-9.66v-24.39c0-4-.66-6.93-1.97-8.77-1.31-1.84-3.43-2.76-6.35-2.76-2.57,0-4.72,1.14-6.45,3.43-1.73,2.29-2.6,5.09-2.6,8.42v24.07h-9.66v-24.96c0-3.65-.7-6.39-2.09-8.22-1.39-1.83-3.47-2.74-6.23-2.74s-4.85,1.09-6.51,3.27c-1.66,2.18-2.5,5.07-2.5,8.66v23.98h-9.7v-42.57h9.7v6.7h.16c1.43-2.43,3.31-4.33,5.62-5.68,2.31-1.35,4.93-2.03,7.85-2.03s5.44.74,7.57,2.21c2.12,1.48,3.66,3.54,4.61,6.19,1.6-2.81,3.58-4.92,5.95-6.31,2.37-1.39,5.12-2.09,8.26-2.09,4.65,0,8.15,1.43,10.49,4.3,2.34,2.87,3.51,7.17,3.51,12.91v26.38Z"/><path fill="#5ebb47" d="M250.94,234.01h-9.66v-24.39c0-4-.66-6.93-1.97-8.77-1.31-1.84-3.43-2.76-6.35-2.76-2.57,0-4.72,1.14-6.45,3.43-1.73,2.29-2.6,5.09-2.6,8.42v24.07h-9.66v-24.96c0-3.65-.7-6.39-2.09-8.22-1.39-1.83-3.47-2.74-6.23-2.74s-4.85,1.09-6.51,3.27c-1.66,2.18-2.5,5.07-2.5,8.66v23.98h-9.7v-42.57h9.7v6.7h.16c1.43-2.43,3.31-4.33,5.62-5.68,2.31-1.35,4.93-2.03,7.85-2.03s5.44.74,7.57,2.21c2.12,1.48,3.66,3.54,4.61,6.19,1.6-2.81,3.58-4.92,5.95-6.31,2.37-1.39,5.12-2.09,8.26-2.09,4.65,0,8.15,1.43,10.49,4.3,2.34,2.87,3.51,7.17,3.51,12.91v26.38Z"/><path fill="#5ebb47" d="M302.16,191.44l-19.52,50.28c-1.52,3.95-3.59,6.95-6.23,9.01-2.64,2.06-5.8,3.08-9.48,3.08-1.08,0-2.12-.07-3.1-.2-.99-.14-1.93-.32-2.82-.57l1.75-7.51c.62.22,1.2.37,1.75.47.54.09,1.12.14,1.75.14,1.57,0,2.92-.41,4.06-1.24,1.14-.83,2.06-2.05,2.76-3.67l3.12-7.3-16.92-42.49h10.67l9.9,29.63c.16.51.32,1.14.49,1.87s.32,1.57.49,2.52h.24c.11-.57.25-1.2.43-1.89.18-.69.39-1.49.63-2.41l10.31-29.71h9.74Z"/></g></svg>